<svg width="100%" height="100%" preserveAspectRatio="none" viewBox="0 0 745 479" fill="none" xmlns="http://www.w3.org/2000/svg">
<path d="M10.5711 26.3746C-9.41906 39.979 0.576001 441.709 26.8593 465.117C44.2581 480.722 678.019 486.323 716.889 465.117C760.571 441.309 747.614 25.9745 716.889 10.9697C685.793 -4.23526 61.2867 -7.4363 10.5711 26.3746Z" fill="white" fill-opacity="0.06"/>
<path d="M27.1932 464.744L27.1918 464.743C25.651 463.371 24.1059 460.538 22.5963 456.313C21.0951 452.112 19.6555 446.615 18.2829 440C15.5382 426.772 13.0718 409.125 10.9122 388.549C6.5931 347.399 3.50489 294.576 1.86241 242.054C0.219927 189.532 0.0234863 137.32 1.48634 97.394C2.21784 77.4291 3.36387 60.5467 4.94948 48.2366C5.74251 42.0797 6.64362 37.0819 7.65299 33.4195C8.15782 31.5878 8.68583 30.1047 9.23368 28.9832C9.78647 27.8516 10.3341 27.1415 10.8505 26.7893C13.9439 24.7277 19.2817 22.7758 26.6399 20.948C33.9844 19.1236 43.2898 17.4347 54.2764 15.8767C76.2486 12.7607 104.911 10.1726 137.988 8.06442C204.14 3.84824 287.92 1.55389 371.092 0.79118C454.263 0.0284812 536.82 0.797458 600.525 2.70722C632.378 3.66212 659.514 4.9021 679.655 6.378C689.726 7.116 698.042 7.91254 704.322 8.76101C707.463 9.18527 710.088 9.62172 712.165 10.0689C714.253 10.5182 715.755 10.9717 716.669 11.4188L716.889 10.9697L716.669 11.4189C717.533 11.8407 718.419 12.6344 719.317 13.8259C720.212 15.0144 721.101 16.5733 721.977 18.4892C723.731 22.3213 725.415 27.5304 727.017 33.9366C730.219 46.7456 733.072 64.2692 735.497 84.9705C740.348 126.369 743.482 180.419 744.292 234.749C745.101 289.081 743.586 343.677 739.141 386.17C736.918 407.419 733.964 425.623 730.208 439.25C728.33 446.063 726.257 451.715 723.983 456.024C721.703 460.344 719.252 463.259 716.649 464.677L716.889 465.117L716.649 464.678C714.304 465.957 709.632 467.168 702.843 468.289C696.08 469.407 687.285 470.425 676.749 471.347C655.679 473.192 627.676 474.651 595.103 475.758C529.959 477.971 446.558 478.771 363.825 478.421C281.091 478.071 199.031 476.57 136.57 474.182C105.338 472.988 79.0112 471.573 59.952 469.968C50.4212 469.166 42.7165 468.318 37.1275 467.427C34.3321 466.982 32.0766 466.528 30.3911 466.067C29.5482 465.837 28.8567 465.607 28.3155 465.38C27.7675 465.149 27.4043 464.934 27.1932 464.744Z" stroke="#9890ED" stroke-opacity="0.33"/>
<g style="mix-blend-mode:plus-lighter" opacity="0.5">
<path d="M20.6442 32.7802C20.6442 32.7802 -20.4286 67.9236 99.8294 77.2196C220.457 86.5156 344.416 33.9139 449.503 23.2575C554.59 12.6011 643.766 9.88037 643.766 9.88037C643.766 9.88037 150.893 -15.2868 20.6442 32.7802Z" fill="url(#paint0_linear_1_61)" fill-opacity="0.38"/>
</g>
<path d="M19.3869 48.271C19.3869 48.271 16.0567 41.0155 26.7874 34.8938C37.5181 28.7721 95.982 16.7553 101.162 19.7028C106.343 22.6503 43.4385 50.3115 19.3869 48.271Z" fill="white" fill-opacity="0.12"/>
<path d="M32.739 48.9874C27.5587 47.1735 18.3081 55.7893 29.4088 59.1903C40.1395 62.818 39.0295 51.2547 32.739 48.9874Z" fill="white" fill-opacity="0.12"/>
<defs>
<linearGradient id="paint0_linear_1_61" x1="13.869" y1="40.8235" x2="643.948" y2="40.8235" gradientUnits="userSpaceOnUse">
<stop stop-color="#23786E" stop-opacity="0.4"/>
<stop offset="0.1832" stop-color="#1E685F" stop-opacity="0.31"/>
<stop offset="0.5417" stop-color="#123E39" stop-opacity="0.68"/>
<stop offset="1"/>
</linearGradient>
</defs>
</svg>
